HIERARCHY
ROOT SpineBase
{
  OFFSET 0.000000 0.000000 0.000000
  CHANNELS 6 Xposition Yposition Zposition Zrotation Xrotation Yrotation
  JOINT SpineMid
  {
    OFFSET 0.000000 29.288705 0.000000
    CHANNELS 3 Zrotation Xrotation Yrotation
    JOINT SpineShoulder
    {
      OFFSET 0.035387 21.878042 -0.605063
      CHANNELS 3 Zrotation Xrotation Yrotation
      JOINT Neck
      {
        OFFSET 0.065006 7.239734 -0.478484
        CHANNELS 3 Zrotation Xrotation Yrotation
        JOINT Head
        {
          OFFSET -5.092697 12.828027 -1.583929
          CHANNELS 3 Zrotation Xrotation Yrotation
          End Site
          {
            OFFSET 0 0 0
          }
        }
      }
      JOINT ShoulderLeft
      {
        OFFSET -15.640531 -5.181821 6.595770
        CHANNELS 3 Zrotation Xrotation Yrotation
        JOINT ElbowLeft
        {
          OFFSET -1.031269 -25.929404 1.557528
          CHANNELS 3 Zrotation Xrotation Yrotation
          JOINT WristLeft
          {
            OFFSET 1.804247 -19.741802 -8.982066
            CHANNELS 3 Zrotation Xrotation Yrotation
            JOINT HandLeft
            {
              OFFSET 0.467720 -2.674207 0.403109
              CHANNELS 3 Zrotation Xrotation Yrotation
              JOINT HandTipLeft
              {
                OFFSET -0.116403 -6.743842 -1.910513
                CHANNELS 3 Zrotation Xrotation Yrotation
                End Site
                {
                  OFFSET 0 0 0
                }
              }
              JOINT ThumbLeft
              {
                OFFSET -3.515686 1.090189 -2.663402
                CHANNELS 3 Zrotation Xrotation Yrotation
                End Site
                {
                  OFFSET 0 0 0
                }
              }
            }
          }
        }
      }
      JOINT ShoulderRight
      {
        OFFSET 14.148070 -2.759794 -8.650002
        CHANNELS 3 Zrotation Xrotation Yrotation
        JOINT ElbowRight
        {
          OFFSET 5.321626 -23.210409 -1.455646
          CHANNELS 3 Zrotation Xrotation Yrotation
          JOINT WristRight
          {
            OFFSET -4.034899 -20.716826 -4.856938
            CHANNELS 3 Zrotation Xrotation Yrotation
            JOINT HandRight
            {
              OFFSET -1.270863 -4.895854 -0.019884
              CHANNELS 3 Zrotation Xrotation Yrotation
              JOINT HandTipRight
              {
                OFFSET -1.597701 -7.291624 -0.960382
                CHANNELS 3 Zrotation Xrotation Yrotation
                End Site
                {
                  OFFSET 0 0 0
                }
              }
              JOINT ThumbRight
              {
                OFFSET -3.118033 0.003550 0.294544
                CHANNELS 3 Zrotation Xrotation Yrotation
                End Site
                {
                  OFFSET 0 0 0
                }
              }
            }
          }
        }
      }
    }
  }
  JOINT HipLeft
  {
    OFFSET -6.382374 0.603397 -0.477697
    CHANNELS 3 Zrotation Xrotation Yrotation
    JOINT KneeLeft
    {
      OFFSET 6.762973 -29.958498 7.884730
      CHANNELS 3 Zrotation Xrotation Yrotation
      JOINT AnkleLeft
      {
        OFFSET 7.172117 -29.977788 5.158802
        CHANNELS 3 Zrotation Xrotation Yrotation
        JOINT FootLeft
        {
          OFFSET -1.074480 -5.902361 -8.698925
          CHANNELS 3 Zrotation Xrotation Yrotation
          End Site
          {
            OFFSET 0 0 0
          }
        }
      }
    }
  }
  JOINT HipRight
  {
    OFFSET 7.002525 1.101597 -5.848730
    CHANNELS 3 Zrotation Xrotation Yrotation
    JOINT KneeRight
    {
      OFFSET 7.661346 -26.745638 4.983671
      CHANNELS 3 Zrotation Xrotation Yrotation
      JOINT AnkleRight
      {
        OFFSET 2.938862 -35.027420 9.031256
        CHANNELS 3 Zrotation Xrotation Yrotation
        JOINT FootRight
        {
          OFFSET -4.097834 -4.436743 -10.837551
          CHANNELS 3 Zrotation Xrotation Yrotation
          End Site
          {
            OFFSET 0 0 0
          }
        }
      }
    }
  }
}
MOTION
Frames: 15
Frame Time: 0.033333
-32.438173 68.628584 342.797082 -1.650640 2.218830 39.824328 0.158922 0.001868 -39.834608 -0.009374 0.099744 -0.076365 15.317555 5.879194 4.562407 0.000000 0.000000 0.000000 -4.887171 -2.602751 -0.504051 -6.566372 0.189213 6.408992 -15.397578 20.972984 -1.810770 30.976859 -2.529017 5.436139 0.000000 0.000000 0.000000 0.000000 0.000000 0.000000 -5.107926 10.784742 4.129518 -83.876352 -15.796337 -4.186809 -51.144681 -51.957200 -88.864005 -57.752980 39.993261 90.062938 0.000000 0.000000 0.000000 0.000000 0.000000 0.000000 -5.144997 5.531791 -41.410291 10.981246 -2.264077 2.483947 15.495362 -6.250064 -26.244619 0.000000 0.000000 0.000000 -1.115090 -1.364785 -40.004969 4.024026 -1.695066 0.733207 9.570075 -31.350762 20.397310 0.000000 0.000000 0.000000
-32.704107 67.591270 342.729835 -1.840711 2.222672 39.164355 0.046367 -0.016863 -39.180726 0.063070 0.032380 -0.079950 22.111545 3.095464 4.394069 0.000000 0.000000 0.000000 -4.706243 -2.443923 -0.475114 -7.492146 8.060761 8.275131 -12.107593 16.359662 -4.334371 30.090737 -8.169405 5.194765 0.000000 0.000000 0.000000 0.000000 0.000000 0.000000 -3.965860 10.268765 3.831480 -85.035296 -15.586943 -3.217667 -46.082999 -52.170791 -84.959781 -56.202785 39.793412 86.595141 0.000000 0.000000 0.000000 0.000000 0.000000 0.000000 -4.463784 4.923101 -40.571805 10.561979 -2.146902 2.382518 12.105611 -2.396917 -21.599651 0.000000 0.000000 0.000000 -0.923433 -1.044711 -39.277017 4.859390 -2.529911 0.831440 12.292313 -35.260886 20.137625 0.000000 0.000000 0.000000
-32.963594 66.618295 342.688196 -1.981018 2.176538 38.195892 0.005124 -0.085930 -38.214917 0.112493 -0.026948 -0.080272 26.870767 1.836077 4.529317 0.000000 0.000000 0.000000 -4.628127 -2.235289 -0.451827 -6.972913 15.129824 9.191666 -8.568150 9.074834 -6.001023 32.044672 -14.496232 4.250930 0.000000 0.000000 0.000000 0.000000 0.000000 0.000000 -2.754019 9.298754 3.375419 -88.706458 -15.972985 -2.090041 -27.721855 -52.559775 -72.959629 -60.859799 43.789980 85.623142 0.000000 0.000000 0.000000 0.000000 0.000000 0.000000 -4.194095 4.803354 -39.528465 11.543745 -1.862146 2.654243 -0.310888 1.564866 -5.525143 0.000000 0.000000 0.000000 -0.683126 -0.623068 -38.215916 5.583854 -3.373579 0.903684 11.989993 -35.180151 17.156256 0.000000 0.000000 0.000000
-33.070395 65.898236 342.662057 -1.867022 2.076538 37.229384 -0.032789 -0.182483 -37.249169 0.217363 -0.090327 -0.065099 29.100520 2.026589 4.639831 0.000000 0.000000 0.000000 -4.867678 -1.973759 -0.448293 -6.098800 22.414154 9.823196 4.264212 -2.624541 -3.536013 22.751614 -17.143638 -0.577311 0.000000 0.000000 0.000000 0.000000 0.000000 0.000000 -0.493785 8.686443 2.808282 -90.115942 -15.719746 -0.736593 8.903957 -46.351535 -44.343932 -58.766957 46.742561 70.199042 0.000000 0.000000 0.000000 0.000000 0.000000 0.000000 -4.153866 4.917467 -38.501193 11.958817 -1.740268 2.774504 -5.492855 4.700697 0.478629 0.000000 0.000000 0.000000 -0.836892 0.058297 -37.230824 6.333694 -3.954150 1.000039 9.840181 -32.144354 12.197765 0.000000 0.000000 0.000000
-33.087376 65.475005 342.729697 -1.622680 1.848139 36.658189 -0.050048 -0.265090 -36.677878 0.354760 -0.184443 -0.041470 30.465400 2.861235 4.653354 0.000000 0.000000 0.000000 -5.280869 -1.573585 -0.444838 -4.496872 30.227159 9.939839 23.209141 -24.895750 6.306628 4.542894 -2.123586 -8.144456 0.000000 0.000000 0.000000 0.000000 0.000000 0.000000 0.627678 8.260530 2.381071 -87.071767 -15.066813 0.677236 43.390853 -27.197684 -22.961422 -51.474140 37.475964 40.904153 0.000000 0.000000 0.000000 0.000000 0.000000 0.000000 -4.179092 5.480328 -37.868967 11.849902 -2.171432 2.701189 -12.258283 9.494821 9.299086 0.000000 0.000000 0.000000 -0.895879 0.910920 -36.593839 6.721459 -4.500174 0.996157 6.702670 -26.484266 8.672471 0.000000 0.000000 0.000000
-32.998808 65.450231 342.876409 -1.251626 1.545844 36.946980 0.052959 -0.308985 -36.959691 0.505168 -0.292716 -0.008596 30.837101 3.863948 4.587373 0.000000 0.000000 0.000000 -5.909170 -1.188546 -0.456207 -2.127677 36.325091 9.134736 37.895353 -48.312911 19.863633 -2.805707 20.901544 -10.061449 0.000000 0.000000 0.000000 0.000000 0.000000 0.000000 1.060439 7.937455 2.030871 -80.574107 -13.712697 2.059158 57.525260 -11.038127 -17.269002 -54.746522 32.934515 27.007416 0.000000 0.000000 0.000000 0.000000 0.000000 0.000000 -4.228764 6.605941 -38.085435 12.513605 -2.692818 2.825479 -12.187015 5.699208 9.486611 0.000000 0.000000 0.000000 -0.961395 1.938646 -36.799867 6.947131 -5.027654 0.940763 2.870297 -18.909963 7.756556 0.000000 0.000000 0.000000
-32.696195 65.735666 343.098533 -0.656471 1.219252 37.549215 0.056207 -0.255340 -37.555259 0.456523 -1.050945 0.018508 31.066045 5.425057 4.144002 0.000000 0.000000 0.000000 -6.423685 -0.152619 -0.387859 -0.713626 41.601942 8.759386 47.241702 -61.912105 31.176111 -0.806401 40.274070 -12.516626 0.000000 0.000000 0.000000 0.000000 0.000000 0.000000 1.088221 7.950690 1.670928 -67.224277 -12.270158 3.017484 51.763339 -0.838986 -15.301703 -48.835707 30.803761 17.702168 0.000000 0.000000 0.000000 0.000000 0.000000 0.000000 -4.544484 8.436732 -38.627092 13.953152 -3.276372 3.193516 -7.901920 3.781044 2.856622 0.000000 0.000000 0.000000 -1.460305 3.425846 -37.374728 7.578684 -5.519775 0.963974 -1.044911 -11.417886 8.675039 0.000000 0.000000 0.000000
-32.372156 65.843070 343.347763 0.138812 0.782754 37.596976 -0.587565 -0.535490 -37.600670 1.379764 0.000732 0.091189 29.535080 4.624298 3.969782 0.000000 0.000000 0.000000 -7.798116 -0.141457 -0.477971 2.070599 42.059455 6.795776 47.241781 -68.102135 33.509989 8.992205 45.454570 -18.624346 0.000000 0.000000 0.000000 0.000000 0.000000 0.000000 -0.680858 6.791024 1.375403 -48.973826 -10.349683 3.257854 40.124272 3.017686 -12.285776 -41.878906 29.603845 11.702562 0.000000 0.000000 0.000000 0.000000 0.000000 0.000000 -4.913254 10.238064 -38.567649 13.412407 -4.634218 2.913929 7.760431 0.514480 -17.233785 0.000000 0.000000 0.000000 -2.134828 5.112260 -37.394134 8.323692 -5.910002 1.034345 -4.554290 -5.009925 9.883128 0.000000 0.000000 0.000000
-32.060115 65.990081 343.620504 1.032384 0.281077 37.401821 0.037264 -0.247839 -37.368897 1.117741 -0.707577 0.141480 28.144255 3.796498 3.428396 0.000000 0.000000 0.000000 -8.741361 0.465435 -0.465569 3.278534 39.297322 5.667495 48.798071 -67.748730 34.692880 -10.701050 69.614799 -5.371522 0.000000 0.000000 0.000000 0.000000 0.000000 0.000000 -2.699085 6.280946 1.197918 -29.605679 -8.614296 2.515660 24.878419 -0.589924 -7.296437 -37.991792 29.342897 10.310897 0.000000 0.000000 0.000000 0.000000 0.000000 0.000000 -5.228753 11.994839 -38.209858 12.750613 -6.077851 2.539788 17.875388 -3.281360 -30.637630 0.000000 0.000000 0.000000 -2.775555 6.858677 -37.117393 8.884757 -6.309152 1.056851 -7.826714 1.644382 10.431175 0.000000 0.000000 0.000000
-31.748181 66.095218 343.847405 1.958302 -0.207715 36.964496 -0.018263 -0.273036 -36.898339 1.069273 -0.711550 0.176924 26.521116 2.910475 2.896989 0.000000 0.000000 0.000000 -9.581353 1.018438 -0.444454 7.674112 35.201544 2.302092 30.300201 -52.494706 20.066011 30.687293 72.538804 -46.128775 0.000000 0.000000 0.000000 0.000000 0.000000 0.000000 -5.195272 5.764539 1.118517 -13.333212 -7.591535 1.408399 13.860078 -11.255612 -1.018436 -31.726610 32.883047 9.238064 0.000000 0.000000 0.000000 0.000000 0.000000 0.000000 -5.561164 13.484731 -37.584827 12.395553 -7.173424 2.276406 21.091924 -5.738751 -34.953462 0.000000 0.000000 0.000000 -3.486494 8.535826 -36.572997 9.351337 -6.757705 1.057983 -8.360931 1.444419 12.220926 0.000000 0.000000 0.000000
-31.517943 66.154786 344.032618 2.864220 -0.733326 36.284898 -0.094119 -0.382349 -36.173599 0.939499 -0.691879 0.207048 24.655606 1.835947 2.265954 0.000000 0.000000 0.000000 -10.351376 1.663484 -0.398846 10.580322 31.242383 0.133509 28.673665 -43.177388 19.445543 18.912257 58.613932 -34.855319 0.000000 0.000000 0.000000 0.000000 0.000000 0.000000 -6.187426 5.530683 0.924576 -3.255630 -7.156694 0.492004 4.390924 -12.648077 1.996742 -11.838535 16.097250 1.095139 0.000000 0.000000 0.000000 0.000000 0.000000 0.000000 -5.876506 14.714219 -36.697335 12.422679 -7.744902 2.211588 21.886129 -7.136147 -36.472486 0.000000 0.000000 0.000000 -4.102092 10.081607 -35.741678 9.574734 -7.216693 0.999991 -7.314026 -0.070985 11.984010 0.000000 0.000000 0.000000
-31.461785 66.140369 344.194381 3.613581 -1.294380 35.545300 -0.170612 -0.521268 -35.383189 0.709231 -0.627226 0.224215 22.803890 0.751588 1.611674 0.000000 0.000000 0.000000 -10.878119 2.320714 -0.331713 16.951360 25.001744 -4.100805 15.229862 -18.318158 13.648559 21.884375 18.260311 -23.993392 0.000000 0.000000 0.000000 0.000000 0.000000 0.000000 -5.542974 5.544033 0.625141 1.584177 -7.370347 0.004444 2.257042 -8.701205 2.818712 -3.630771 -1.027869 0.274030 0.000000 0.000000 0.000000 0.000000 0.000000 0.000000 -5.787333 15.555505 -35.709671 11.513290 -8.543293 1.797515 21.601009 -6.334761 -35.251764 0.000000 0.000000 0.000000 -4.319954 11.318546 -34.807528 9.364919 -7.706726 0.835892 -4.571882 -3.951183 10.501247 0.000000 0.000000 0.000000
-31.615645 66.061529 344.337353 4.103971 -1.840783 34.953884 -0.158897 -0.699821 -34.744430 0.414700 -0.512921 0.230671 20.891481 -0.219167 0.993735 0.000000 0.000000 0.000000 -11.174905 2.893286 -0.261693 21.022269 19.046555 -6.532679 8.474076 -3.484860 12.501358 22.087935 -6.863586 -13.973393 0.000000 0.000000 0.000000 0.000000 0.000000 0.000000 -4.479499 5.306508 0.262177 2.868382 -8.027366 0.155067 7.122162 6.161146 -1.472654 -4.004940 -19.557070 4.783020 0.000000 0.000000 0.000000 0.000000 0.000000 0.000000 -5.217152 15.989032 -34.873759 10.320844 -9.136615 1.320355 18.421862 -2.159447 -29.380224 0.000000 0.000000 0.000000 -3.956121 12.077477 -34.017414 8.651239 -8.131834 0.561788 -3.577631 -5.002020 9.946478 0.000000 0.000000 0.000000
-31.806659 66.016636 344.434831 4.521841 -2.301474 34.557645 -0.197235 -0.862118 -34.303284 0.217523 -0.400276 0.238659 19.169428 -1.155208 0.422583 0.000000 0.000000 0.000000 -11.811630 3.453053 -0.196422 25.333534 14.449709 -8.612370 4.973369 9.343215 13.408018 24.164599 -20.584124 -8.603714 0.000000 0.000000 0.000000 0.000000 0.000000 0.000000 -2.842692 5.202989 -0.135662 3.739853 -7.875327 0.038676 1.444866 17.005011 -3.893160 0.405085 -30.493183 8.572494 0.000000 0.000000 0.000000 0.000000 0.000000 0.000000 -4.666374 16.272978 -34.279730 9.806314 -9.145580 1.174759 17.697872 -2.745495 -28.767195 0.000000 0.000000 0.000000 -3.587280 12.588266 -33.472497 7.912188 -8.358935 0.311704 -2.955407 -5.340958 9.310146 0.000000 0.000000 0.000000
-32.053925 65.959489 344.519401 4.767427 -2.756988 34.249134 -0.197668 -0.948194 -33.959726 0.087880 -0.314410 0.243978 17.888887 -1.915333 -0.059369 0.000000 0.000000 0.000000 -11.915544 3.954335 -0.132490 26.916101 10.853544 -9.321279 3.761828 18.530002 13.749750 23.452019 -27.266183 -5.802120 0.000000 0.000000 0.000000 0.000000 0.000000 0.000000 -1.869469 5.330419 -0.368927 4.349606 -7.732401 -0.088554 -5.379145 27.753455 -5.373868 2.458491 -37.887812 10.634503 0.000000 0.000000 0.000000 0.000000 0.000000 0.000000 -3.939666 16.409996 -33.802006 8.924249 -9.236425 0.885134 18.955287 -4.694298 -30.789208 0.000000 0.000000 0.000000 -2.967196 12.855597 -33.043944 7.033629 -8.481959 0.045462 -2.729998 -4.958272 8.708768 0.000000 0.000000 0.000000
